<svg width="16" height="16" viewBox="0 0 16 16" fill="none" xmlns="http://www.w3.org/2000/svg">
<g clip-path="url(#clip0_733_246)">
<path d="M10.3674 8.66683C10.8674 8.66683 11.3074 8.3935 11.5341 7.98016L13.9207 3.6535C14.1674 3.2135 13.8474 2.66683 13.3407 2.66683H3.47406L2.84739 1.3335H0.667389V2.66683H2.00072L4.40072 7.72683L3.50072 9.3535C3.01406 10.2468 3.65406 11.3335 4.66739 11.3335H12.6674V10.0002H4.66739L5.40072 8.66683H10.3674ZM4.10739 4.00016H12.2074L10.3674 7.3335H5.68739L4.10739 4.00016ZM4.66739 12.0002C3.93406 12.0002 3.34072 12.6002 3.34072 13.3335C3.34072 14.0668 3.93406 14.6668 4.66739 14.6668C5.40072 14.6668 6.00072 14.0668 6.00072 13.3335C6.00072 12.6002 5.40072 12.0002 4.66739 12.0002ZM11.3341 12.0002C10.6007 12.0002 10.0074 12.6002 10.0074 13.3335C10.0074 14.0668 10.6007 14.6668 11.3341 14.6668C12.0674 14.6668 12.6674 14.0668 12.6674 13.3335C12.6674 12.6002 12.0674 12.0002 11.3341 12.0002Z" fill="#1071FF"/>
</g>
<defs>
<clipPath id="clip0_733_246">
<rect width="16" height="16" fill="white" transform="translate(0.000732422)"/>
</clipPath>
</defs>
</svg>
