<svg width="24" height="24" viewBox="0 0 24 24" fill="none" xmlns="http://www.w3.org/2000/svg">
<g clip-path="url(#clip0_14_2606)">
<path d="M15.551 13C16.301 13 16.961 12.59 17.301 11.97L20.881 5.48C21.251 4.82 20.771 4 20.011 4H5.21098L4.27098 2H1.00098V4H3.00098L6.60098 11.59L5.25098 14.03C4.52098 15.37 5.48098 17 7.00098 17H19.001V15H7.00098L8.10098 13H15.551ZM6.16098 6H18.311L15.551 11H8.53098L6.16098 6ZM7.00098 18C5.90098 18 5.01098 18.9 5.01098 20C5.01098 21.1 5.90098 22 7.00098 22C8.10098 22 9.00098 21.1 9.00098 20C9.00098 18.9 8.10098 18 7.00098 18ZM17.001 18C15.901 18 15.011 18.9 15.011 20C15.011 21.1 15.901 22 17.001 22C18.101 22 19.001 21.1 19.001 20C19.001 18.9 18.101 18 17.001 18Z" fill="#1071FF"/>
</g>
<defs>
<clipPath id="clip0_14_2606">
<rect width="24" height="24" fill="white" transform="translate(0.000976562)"/>
</clipPath>
</defs>
</svg>
