<svg width="161" height="13" viewBox="0 0 161 13" fill="none" xmlns="http://www.w3.org/2000/svg">
<path d="M5.80893 0.142578C7.25611 0.142578 8.45838 0.510293 9.41575 1.24572C10.3731 1.98115 11.0188 2.97844 11.3527 4.23758H9.33226C9.05396 3.52444 8.60867 2.96172 7.9964 2.54944C7.39526 2.12601 6.65497 1.91429 5.77553 1.91429C5.0742 1.91429 4.44524 2.08701 3.88863 2.43244C3.34315 2.77786 2.909 3.27372 2.58616 3.92001C2.27446 4.55515 2.11861 5.30172 2.11861 6.15972C2.11861 7.00658 2.27446 7.75315 2.58616 8.39944C2.909 9.03458 3.34315 9.52486 3.88863 9.87029C4.44524 10.2157 5.0742 10.3884 5.77553 10.3884C6.65497 10.3884 7.39526 10.1823 7.9964 9.77001C8.60867 9.34658 9.05396 8.78386 9.33226 8.08186H11.3527C11.0188 9.34101 10.3731 10.3383 9.41575 11.0737C8.45838 11.798 7.25611 12.1602 5.80893 12.1602C4.69571 12.1602 3.71051 11.9094 2.85334 11.408C1.99616 10.8954 1.33379 10.1879 0.866244 9.28529C0.398693 8.37158 0.164917 7.32972 0.164917 6.15972C0.164917 4.98972 0.398693 3.95344 0.866244 3.05086C1.33379 2.13715 1.99616 1.42401 2.85334 0.911435C3.71051 0.398864 4.69571 0.142578 5.80893 0.142578Z" fill="#0C0C0C"/>
<path d="M17.46 2.73329C18.3506 2.73329 19.1521 2.92272 19.8646 3.30158C20.577 3.68044 21.1336 4.22644 21.5344 4.93958C21.9351 5.65272 22.1355 6.48844 22.1355 7.44672C22.1355 8.41615 21.9351 9.25743 21.5344 9.97058C21.1336 10.6837 20.577 11.2297 19.8646 11.6086C19.1521 11.9874 18.3506 12.1769 17.46 12.1769C16.5694 12.1769 15.7679 11.9874 15.0555 11.6086C14.3541 11.2297 13.7975 10.6837 13.3856 9.97058C12.9849 9.24629 12.7845 8.40501 12.7845 7.44672C12.7845 6.48844 12.9849 5.65272 13.3856 4.93958C13.7975 4.22644 14.3541 3.68044 15.0555 3.30158C15.7679 2.92272 16.5694 2.73329 17.46 2.73329ZM17.46 4.38801C16.9702 4.38801 16.5193 4.49944 16.1074 4.72229C15.6956 4.94515 15.3616 5.29058 15.1056 5.75858C14.8606 6.21544 14.7382 6.77815 14.7382 7.44672C14.7382 8.12644 14.8606 8.69472 15.1056 9.15158C15.3616 9.60844 15.6956 9.94829 16.1074 10.1711C16.5193 10.394 16.9702 10.5054 17.46 10.5054C17.9498 10.5054 18.4007 10.394 18.8126 10.1711C19.2245 9.94829 19.5529 9.60844 19.7978 9.15158C20.0538 8.69472 20.1818 8.12644 20.1818 7.44672C20.1818 6.77815 20.0538 6.21544 19.7978 5.75858C19.5529 5.29058 19.2245 4.94515 18.8126 4.72229C18.4007 4.49944 17.9498 4.38801 17.46 4.38801Z" fill="#0C0C0C"/>
<path d="M35.4708 2.69986C36.5617 2.69986 37.43 3.04529 38.0757 3.73615C38.7325 4.42701 39.0609 5.41315 39.0609 6.69458V12.0599H37.1573V6.89515C37.1573 6.09286 36.9569 5.47444 36.5562 5.03986C36.1554 4.59415 35.6044 4.37129 34.903 4.37129C34.1572 4.37129 33.5616 4.61086 33.1163 5.09001C32.6822 5.55801 32.4651 6.24886 32.4651 7.16258V12.0599H30.5615V6.89515C30.5615 6.09286 30.3611 5.47444 29.9603 5.03986C29.5596 4.59415 29.0085 4.37129 28.3072 4.37129C27.5614 4.37129 26.9658 4.61086 26.5205 5.09001C26.0863 5.55801 25.8693 6.24886 25.8693 7.16258V12.0599H23.9657V2.85029H25.8693V4.77244C26.103 4.10386 26.4927 3.59129 27.0381 3.23472C27.5836 2.87815 28.2237 2.69986 28.9584 2.69986C29.7266 2.69986 30.3889 2.88929 30.9455 3.26815C31.5133 3.64701 31.9252 4.19301 32.1812 4.90615C32.4484 4.21529 32.877 3.67486 33.467 3.28486C34.057 2.89486 34.7249 2.69986 35.4708 2.69986Z" fill="#0C0C0C"/>
<path d="M52.7887 2.69986C53.8796 2.69986 54.748 3.04529 55.3936 3.73615C56.0504 4.42701 56.3788 5.41315 56.3788 6.69458V12.0599H54.4752V6.89515C54.4752 6.09286 54.2748 5.47444 53.8741 5.03986C53.4733 4.59415 52.9223 4.37129 52.2209 4.37129C51.4751 4.37129 50.8795 4.61086 50.4342 5.09001C50.0001 5.55801 49.783 6.24886 49.783 7.16258V12.0599H47.8794V6.89515C47.8794 6.09286 47.679 5.47444 47.2783 5.03986C46.8775 4.59415 46.3265 4.37129 45.6251 4.37129C44.8793 4.37129 44.2837 4.61086 43.8384 5.09001C43.4043 5.55801 43.1872 6.24886 43.1872 7.16258V12.0599H41.2836V2.85029H43.1872V4.77244C43.421 4.10386 43.8106 3.59129 44.3561 3.23472C44.9015 2.87815 45.5416 2.69986 46.2764 2.69986C47.0445 2.69986 47.7068 2.88929 48.2635 3.26815C48.8312 3.64701 49.2431 4.19301 49.4991 4.90615C49.7663 4.21529 50.1949 3.67486 50.7849 3.28486C51.3749 2.89486 52.0428 2.69986 52.7887 2.69986Z" fill="#0C0C0C"/>
<path d="M67.151 7.01215C67.151 7.32415 67.1287 7.59715 67.0842 7.83115H60.0042C60.0376 8.77829 60.2992 9.48029 60.789 9.93715C61.2788 10.394 61.8855 10.6224 62.6091 10.6224C63.2436 10.6224 63.778 10.4609 64.2121 10.1377C64.6574 9.81458 64.9301 9.38558 65.0303 8.85072H67.0675C66.9451 9.49701 66.689 10.0709 66.2994 10.5723C65.9098 11.0737 65.4033 11.4693 64.7799 11.759C64.1565 12.0376 63.4607 12.1769 62.6926 12.1769C61.802 12.1769 61.0116 11.9874 60.3214 11.6086C59.6424 11.2297 59.108 10.6837 58.7184 9.97058C58.3288 9.25743 58.1339 8.41615 58.1339 7.44672C58.1339 6.48844 58.3288 5.65272 58.7184 4.93958C59.108 4.22644 59.6424 3.68044 60.3214 3.30158C61.0116 2.92272 61.802 2.73329 62.6926 2.73329C63.5943 2.73329 64.3791 2.92272 65.047 3.30158C65.7261 3.66929 66.2437 4.18186 66.6 4.83929C66.9673 5.48558 67.151 6.20986 67.151 7.01215ZM65.2307 6.96201C65.253 6.36029 65.1472 5.85886 64.9134 5.45772C64.6908 5.04544 64.3791 4.74458 63.9783 4.55515C63.5887 4.35458 63.1601 4.25429 62.6926 4.25429C61.9467 4.25429 61.3233 4.48272 60.8224 4.93958C60.3214 5.39644 60.0487 6.07058 60.0042 6.96201H65.2307Z" fill="#0C0C0C"/>
<path d="M70.8926 4.65544C71.2043 4.05372 71.6496 3.58015 72.2285 3.23472C72.8073 2.87815 73.4753 2.69986 74.2322 2.69986V4.77244H73.6645C72.8296 4.77244 72.1561 4.97858 71.644 5.39086C71.1431 5.79201 70.8926 6.46058 70.8926 7.39658V12.0599H68.989V2.85029H70.8926V4.65544Z" fill="#0C0C0C"/>
<path d="M79.7496 2.73329C80.9407 2.73329 81.9259 3.05086 82.7052 3.68601C83.4844 4.31001 83.9687 5.16244 84.1579 6.24329H82.1374C82.0261 5.66387 81.7534 5.21258 81.3192 4.88944C80.8962 4.55515 80.3619 4.38801 79.7162 4.38801C78.9815 4.38801 78.3692 4.64986 77.8794 5.17358C77.3896 5.68615 77.1447 6.44386 77.1447 7.44672C77.1447 8.44958 77.3896 9.21286 77.8794 9.73658C78.3692 10.2603 78.9815 10.5221 79.7162 10.5221C80.3619 10.5221 80.8962 10.355 81.3192 10.0207C81.7534 9.68644 82.0261 9.22958 82.1374 8.65015H84.1579C83.9687 9.73101 83.4844 10.589 82.7052 11.2241C81.9259 11.8593 80.9407 12.1769 79.7496 12.1769C78.859 12.1769 78.0686 11.9874 77.3784 11.6086C76.6994 11.2297 76.165 10.6837 75.7754 9.97058C75.3858 9.25743 75.191 8.41615 75.191 7.44672C75.191 6.48844 75.3858 5.65272 75.7754 4.93958C76.165 4.22644 76.6994 3.68044 77.3784 3.30158C78.0686 2.92272 78.859 2.73329 79.7496 2.73329Z" fill="#0C0C0C"/>
<path d="M94.5466 7.01215C94.5466 7.32415 94.5243 7.59715 94.4798 7.83115H87.3997C87.4331 8.77829 87.6947 9.48029 88.1845 9.93715C88.6744 10.394 89.2811 10.6224 90.0047 10.6224C90.6392 10.6224 91.1735 10.4609 91.6077 10.1377C92.053 9.81458 92.3257 9.38558 92.4259 8.85072H94.4631C94.3406 9.49701 94.0846 10.0709 93.695 10.5723C93.3054 11.0737 92.7988 11.4693 92.1754 11.759C91.552 12.0376 90.8563 12.1769 90.0882 12.1769C89.1976 12.1769 88.4072 11.9874 87.717 11.6086C87.0379 11.2297 86.5036 10.6837 86.114 9.97058C85.7243 9.25743 85.5295 8.41615 85.5295 7.44672C85.5295 6.48844 85.7243 5.65272 86.114 4.93958C86.5036 4.22644 87.0379 3.68044 87.717 3.30158C88.4072 2.92272 89.1976 2.73329 90.0882 2.73329C90.9899 2.73329 91.7747 2.92272 92.4426 3.30158C93.1217 3.66929 93.6393 4.18186 93.9955 4.83929C94.3629 5.48558 94.5466 6.20986 94.5466 7.01215ZM92.6263 6.96201C92.6485 6.36029 92.5428 5.85886 92.309 5.45772C92.0864 5.04544 91.7747 4.74458 91.3739 4.55515C90.9843 4.35458 90.5557 4.25429 90.0882 4.25429C89.3423 4.25429 88.7189 4.48272 88.2179 4.93958C87.717 5.39644 87.4443 6.07058 87.3997 6.96201H92.6263Z" fill="#0C0C0C"/>
<path d="M103.298 5.97586C104.01 6.14301 104.572 6.48844 104.984 7.01215C105.407 7.53586 105.619 8.14315 105.619 8.83401C105.619 9.84801 105.279 10.6392 104.6 11.2074C103.932 11.7757 102.969 12.0599 101.711 12.0599H96.2176V0.242864H101.578C102.78 0.242864 103.71 0.504721 104.366 1.02844C105.023 1.55215 105.352 2.29872 105.352 3.26815C105.352 3.98129 105.162 4.57744 104.784 5.05658C104.405 5.52458 103.91 5.83101 103.298 5.97586ZM99.073 5.07329H100.943C101.934 5.07329 102.429 4.64986 102.429 3.80301C102.429 2.95615 101.923 2.53272 100.91 2.53272H99.073V5.07329ZM101.11 9.73658C102.168 9.73658 102.697 9.30201 102.697 8.43286C102.697 8.00944 102.557 7.68072 102.279 7.44672C102.001 7.20158 101.606 7.07901 101.093 7.07901H99.073V9.73658H101.11Z" fill="#0C0C0C"/>
<path d="M111.485 2.61629C112.409 2.61629 113.233 2.81129 113.956 3.20129C114.691 3.58015 115.265 4.13172 115.676 4.85601C116.099 5.58029 116.311 6.42715 116.311 7.39658C116.311 8.36601 116.099 9.21286 115.676 9.93715C115.265 10.6614 114.691 11.2186 113.956 11.6086C113.233 11.9874 112.409 12.1769 111.485 12.1769C110.561 12.1769 109.732 11.9874 108.997 11.6086C108.262 11.2186 107.683 10.6614 107.26 9.93715C106.849 9.21286 106.643 8.36601 106.643 7.39658C106.643 6.42715 106.849 5.58029 107.26 4.85601C107.683 4.13172 108.262 3.58015 108.997 3.20129C109.732 2.81129 110.561 2.61629 111.485 2.61629ZM111.485 5.09001C110.94 5.09001 110.478 5.29058 110.099 5.69172C109.732 6.08172 109.548 6.65001 109.548 7.39658C109.548 8.14315 109.732 8.71144 110.099 9.10144C110.478 9.49144 110.94 9.68644 111.485 9.68644C112.031 9.68644 112.487 9.49144 112.854 9.10144C113.222 8.71144 113.405 8.14315 113.405 7.39658C113.405 6.65001 113.222 6.08172 112.854 5.69172C112.487 5.29058 112.031 5.09001 111.485 5.09001Z" fill="#0C0C0C"/>
<path d="M122.15 2.61629C123.074 2.61629 123.898 2.81129 124.621 3.20129C125.356 3.58015 125.929 4.13172 126.341 4.85601C126.764 5.58029 126.976 6.42715 126.976 7.39658C126.976 8.36601 126.764 9.21286 126.341 9.93715C125.929 10.6614 125.356 11.2186 124.621 11.6086C123.898 11.9874 123.074 12.1769 122.15 12.1769C121.226 12.1769 120.397 11.9874 119.662 11.6086C118.927 11.2186 118.348 10.6614 117.925 9.93715C117.513 9.21286 117.307 8.36601 117.307 7.39658C117.307 6.42715 117.513 5.58029 117.925 4.85601C118.348 4.13172 118.927 3.58015 119.662 3.20129C120.397 2.81129 121.226 2.61629 122.15 2.61629ZM122.15 5.09001C121.604 5.09001 121.142 5.29058 120.764 5.69172C120.397 6.08172 120.213 6.65001 120.213 7.39658C120.213 8.14315 120.397 8.71144 120.764 9.10144C121.142 9.49144 121.604 9.68644 122.15 9.68644C122.695 9.68644 123.152 9.49144 123.519 9.10144C123.886 8.71144 124.07 8.14315 124.07 7.39658C124.07 6.65001 123.886 6.08172 123.519 5.69172C123.152 5.29058 122.695 5.09001 122.15 5.09001Z" fill="#0C0C0C"/>
<path d="M131.846 2.61629C133.026 2.61629 133.967 2.91158 134.668 3.50215C135.381 4.09272 135.826 4.87272 136.004 5.84215H133.332C133.254 5.46329 133.076 5.16801 132.798 4.95629C132.531 4.73344 132.191 4.62201 131.779 4.62201C131.456 4.62201 131.212 4.69444 131.045 4.83929C130.878 4.97301 130.794 5.16801 130.794 5.42429C130.794 5.71401 130.944 5.93129 131.245 6.07615C131.557 6.22101 132.041 6.36586 132.698 6.51072C133.41 6.67786 133.995 6.85058 134.451 7.02886C134.907 7.19601 135.303 7.47458 135.637 7.86458C135.971 8.25458 136.137 8.77829 136.137 9.43572C136.137 9.97058 135.993 10.4442 135.703 10.8564C135.414 11.2687 134.996 11.5919 134.451 11.8259C133.906 12.0599 133.26 12.1769 132.514 12.1769C131.256 12.1769 130.249 11.8983 129.492 11.3412C128.735 10.784 128.273 9.98729 128.106 8.95101H130.861C130.905 9.35215 131.072 9.65858 131.362 9.87029C131.662 10.082 132.046 10.1879 132.514 10.1879C132.837 10.1879 133.082 10.1154 133.249 9.97058C133.416 9.81458 133.499 9.61401 133.499 9.36886C133.499 9.04572 133.343 8.81729 133.032 8.68358C132.731 8.53872 132.236 8.38829 131.545 8.23229C130.855 8.08744 130.288 7.93144 129.842 7.76429C129.397 7.59715 129.013 7.32972 128.69 6.96201C128.367 6.58315 128.206 6.07058 128.206 5.42429C128.206 4.58858 128.523 3.91444 129.158 3.40186C129.792 2.87815 130.688 2.61629 131.846 2.61629Z" fill="#0C0C0C"/>
<path d="M142.995 9.60287V12.0599H141.71C140.619 12.0599 139.767 11.7924 139.155 11.2576C138.554 10.7116 138.253 9.81458 138.253 8.56658V5.14015H137.001V2.73329H138.253V0.443435H141.108V2.73329H142.979V5.14015H141.108V8.61672C141.108 8.98444 141.181 9.24072 141.325 9.38558C141.481 9.53044 141.737 9.60287 142.094 9.60287H142.995Z" fill="#0C0C0C"/>
<path d="M153.45 7.14586C153.45 7.37986 153.422 7.63615 153.367 7.91472H146.904C146.938 8.61672 147.116 9.12372 147.439 9.43572C147.762 9.73658 148.174 9.88701 148.674 9.88701C149.098 9.88701 149.448 9.78115 149.726 9.56944C150.005 9.35772 150.188 9.08472 150.278 8.75044H153.3C153.177 9.40786 152.91 9.99844 152.498 10.5221C152.087 11.0347 151.563 11.4414 150.929 11.7423C150.294 12.032 149.587 12.1769 148.808 12.1769C147.895 12.1769 147.083 11.9874 146.37 11.6086C145.669 11.2186 145.118 10.6614 144.717 9.93715C144.316 9.21286 144.116 8.36601 144.116 7.39658C144.116 6.41601 144.311 5.56915 144.7 4.85601C145.101 4.13172 145.658 3.58015 146.37 3.20129C147.083 2.81129 147.895 2.61629 148.808 2.61629C149.732 2.61629 150.545 2.80572 151.246 3.18458C151.947 3.56344 152.487 4.09829 152.866 4.78915C153.255 5.46886 153.45 6.25444 153.45 7.14586ZM150.561 6.71129C150.573 6.09844 150.406 5.64158 150.06 5.34072C149.726 5.02872 149.309 4.87272 148.808 4.87272C148.285 4.87272 147.851 5.02872 147.506 5.34072C147.161 5.65272 146.966 6.10958 146.921 6.71129H150.561Z" fill="#0C0C0C"/>
<path d="M157.794 4.48829C158.15 3.92001 158.607 3.46872 159.163 3.13444C159.731 2.80015 160.343 2.63301 161 2.63301V5.69172H160.182C159.425 5.69172 158.835 5.85329 158.412 6.17643C158 6.49958 157.794 7.04558 157.794 7.81444V12.0599H154.939V2.73329H157.794V4.48829Z" fill="#0C0C0C"/>
</svg>
