<svg width="29" height="32" viewBox="0 0 29 32" fill="none" xmlns="http://www.w3.org/2000/svg">
<g clip-path="url(#clip0_14_2605)">
<path d="M15.551 21C16.301 21 16.961 20.59 17.301 19.97L20.881 13.48C21.251 12.82 20.771 12 20.011 12H5.21098L4.27098 10H1.00098V12H3.00098L6.60098 19.59L5.25098 22.03C4.52098 23.37 5.48098 25 7.00098 25H19.001V23H7.00098L8.10098 21H15.551ZM6.16098 14H18.311L15.551 19H8.53098L6.16098 14ZM7.00098 26C5.90098 26 5.01098 26.9 5.01098 28C5.01098 29.1 5.90098 30 7.00098 30C8.10098 30 9.00098 29.1 9.00098 28C9.00098 26.9 8.10098 26 7.00098 26ZM17.001 26C15.901 26 15.011 26.9 15.011 28C15.011 29.1 15.901 30 17.001 30C18.101 30 19.001 29.1 19.001 28C19.001 26.9 18.101 26 17.001 26Z" fill="#1071FF"/>
</g>
<circle cx="21" cy="8" r="8" fill="#FF4E00"/>
<path d="M18.64 12H19.49V10.52H20.43V9.76H19.49V5H18.28L15.45 9.64V10.52H18.64V12ZM16.27 9.76V9.72L18.6 5.85H18.64V9.76H16.27ZM23.8389 12.09C25.4089 12.09 26.1689 11.12 26.1689 9.71C26.1689 8.41 25.3889 7.43 23.9789 7.43C23.2389 7.43 22.7989 7.72 22.5389 8H22.4989L22.6589 5.77H25.8389V5H21.9189L21.6489 8.87H22.5289C22.7989 8.5 23.1789 8.18 23.8489 8.18C24.8589 8.18 25.3089 8.86 25.3089 9.74C25.3089 10.65 24.8989 11.33 23.8389 11.33C22.9089 11.33 22.3789 10.74 22.3789 10.02H21.5289C21.5289 11.19 22.4089 12.09 23.8389 12.09Z" fill="white"/>
<defs>
<clipPath id="clip0_14_2605">
<rect width="24" height="24" fill="white" transform="translate(0.000976562 8)"/>
</clipPath>
</defs>
</svg>
