<svg width="195" height="24" viewBox="0 0 195 24" fill="none" xmlns="http://www.w3.org/2000/svg">
<path d="M39.8089 5.14258C41.2561 5.14258 42.4584 5.51029 43.4157 6.24572C44.3731 6.98115 45.0188 7.97844 45.3527 9.23758H43.3323C43.054 8.52444 42.6087 7.96172 41.9964 7.54944C41.3953 7.12601 40.655 6.91429 39.7755 6.91429C39.0742 6.91429 38.4452 7.08701 37.8886 7.43244C37.3432 7.77786 36.909 8.27372 36.5862 8.92001C36.2745 9.55515 36.1186 10.3017 36.1186 11.1597C36.1186 12.0066 36.2745 12.7531 36.5862 13.3994C36.909 14.0346 37.3432 14.5249 37.8886 14.8703C38.4452 15.2157 39.0742 15.3884 39.7755 15.3884C40.655 15.3884 41.3953 15.1823 41.9964 14.77C42.6087 14.3466 43.054 13.7839 43.3323 13.0819H45.3527C45.0188 14.341 44.3731 15.3383 43.4157 16.0737C42.4584 16.798 41.2561 17.1602 39.8089 17.1602C38.6957 17.1602 37.7105 16.9094 36.8533 16.408C35.9962 15.8954 35.3338 15.1879 34.8662 14.2853C34.3987 13.3716 34.1649 12.3297 34.1649 11.1597C34.1649 9.98972 34.3987 8.95344 34.8662 8.05086C35.3338 7.13715 35.9962 6.42401 36.8533 5.91144C37.7105 5.39886 38.6957 5.14258 39.8089 5.14258Z" fill="#0C0C0C"/>
<path d="M51.46 7.73329C52.3506 7.73329 53.1521 7.92272 53.8646 8.30158C54.577 8.68044 55.1336 9.22644 55.5344 9.93958C55.9351 10.6527 56.1355 11.4884 56.1355 12.4467C56.1355 13.4162 55.9351 14.2574 55.5344 14.9706C55.1336 15.6837 54.577 16.2297 53.8646 16.6086C53.1521 16.9874 52.3506 17.1769 51.46 17.1769C50.5694 17.1769 49.7679 16.9874 49.0555 16.6086C48.3541 16.2297 47.7975 15.6837 47.3856 14.9706C46.9849 14.2463 46.7845 13.405 46.7845 12.4467C46.7845 11.4884 46.9849 10.6527 47.3856 9.93958C47.7975 9.22644 48.3541 8.68044 49.0555 8.30158C49.7679 7.92272 50.5694 7.73329 51.46 7.73329ZM51.46 9.38801C50.9702 9.38801 50.5193 9.49944 50.1074 9.72229C49.6956 9.94515 49.3616 10.2906 49.1056 10.7586C48.8606 11.2154 48.7382 11.7781 48.7382 12.4467C48.7382 13.1264 48.8606 13.6947 49.1056 14.1516C49.3616 14.6084 49.6956 14.9483 50.1074 15.1711C50.5193 15.394 50.9702 15.5054 51.46 15.5054C51.9498 15.5054 52.4007 15.394 52.8126 15.1711C53.2245 14.9483 53.5529 14.6084 53.7978 14.1516C54.0538 13.6947 54.1818 13.1264 54.1818 12.4467C54.1818 11.7781 54.0538 11.2154 53.7978 10.7586C53.5529 10.2906 53.2245 9.94515 52.8126 9.72229C52.4007 9.49944 51.9498 9.38801 51.46 9.38801Z" fill="#0C0C0C"/>
<path d="M69.4708 7.69986C70.5617 7.69986 71.43 8.04529 72.0757 8.73615C72.7325 9.42701 73.0609 10.4131 73.0609 11.6946V17.0599H71.1573V11.8952C71.1573 11.0929 70.9569 10.4744 70.5562 10.0399C70.1554 9.59415 69.6044 9.37129 68.903 9.37129C68.1572 9.37129 67.5616 9.61086 67.1163 10.09C66.6822 10.558 66.4651 11.2489 66.4651 12.1626V17.0599H64.5615V11.8952C64.5615 11.0929 64.3611 10.4744 63.9603 10.0399C63.5596 9.59415 63.0085 9.37129 62.3072 9.37129C61.5614 9.37129 60.9658 9.61086 60.5205 10.09C60.0863 10.558 59.8693 11.2489 59.8693 12.1626V17.0599H57.9657V7.85029H59.8693V9.77244C60.103 9.10386 60.4927 8.59129 61.0381 8.23472C61.5836 7.87815 62.2237 7.69986 62.9584 7.69986C63.7266 7.69986 64.3889 7.88929 64.9455 8.26815C65.5133 8.64701 65.9252 9.19301 66.1812 9.90615C66.4484 9.21529 66.877 8.67486 67.467 8.28486C68.057 7.89486 68.7249 7.69986 69.4708 7.69986Z" fill="#0C0C0C"/>
<path d="M86.7887 7.69986C87.8796 7.69986 88.748 8.04529 89.3936 8.73615C90.0504 9.42701 90.3788 10.4131 90.3788 11.6946V17.0599H88.4752V11.8952C88.4752 11.0929 88.2748 10.4744 87.8741 10.0399C87.4733 9.59415 86.9223 9.37129 86.2209 9.37129C85.4751 9.37129 84.8795 9.61086 84.4342 10.09C84.0001 10.558 83.783 11.2489 83.783 12.1626V17.0599H81.8794V11.8952C81.8794 11.0929 81.679 10.4744 81.2783 10.0399C80.8775 9.59415 80.3265 9.37129 79.6251 9.37129C78.8793 9.37129 78.2837 9.61086 77.8384 10.09C77.4043 10.558 77.1872 11.2489 77.1872 12.1626V17.0599H75.2836V7.85029H77.1872V9.77244C77.421 9.10386 77.8106 8.59129 78.3561 8.23472C78.9015 7.87815 79.5416 7.69986 80.2764 7.69986C81.0445 7.69986 81.7068 7.88929 82.2635 8.26815C82.8312 8.64701 83.2431 9.19301 83.4991 9.90615C83.7663 9.21529 84.1949 8.67486 84.7849 8.28486C85.3749 7.89486 86.0428 7.69986 86.7887 7.69986Z" fill="#0C0C0C"/>
<path d="M101.151 12.0121C101.151 12.3241 101.129 12.5971 101.084 12.8311H94.0042C94.0376 13.7783 94.2992 14.4803 94.789 14.9372C95.2788 15.394 95.8855 15.6224 96.6091 15.6224C97.2436 15.6224 97.778 15.4609 98.2121 15.1377C98.6574 14.8146 98.9301 14.3856 99.0303 13.8507H101.068C100.945 14.497 100.689 15.0709 100.299 15.5723C99.9098 16.0737 99.4033 16.4693 98.7799 16.759C98.1565 17.0376 97.4607 17.1769 96.6926 17.1769C95.802 17.1769 95.0116 16.9874 94.3214 16.6086C93.6424 16.2297 93.108 15.6837 92.7184 14.9706C92.3288 14.2574 92.1339 13.4162 92.1339 12.4467C92.1339 11.4884 92.3288 10.6527 92.7184 9.93958C93.108 9.22644 93.6424 8.68044 94.3214 8.30158C95.0116 7.92272 95.802 7.73329 96.6926 7.73329C97.5943 7.73329 98.3791 7.92272 99.047 8.30158C99.7261 8.66929 100.244 9.18186 100.6 9.83929C100.967 10.4856 101.151 11.2099 101.151 12.0121ZM99.2307 11.962C99.253 11.3603 99.1472 10.8589 98.9134 10.4577C98.6908 10.0454 98.3791 9.74458 97.9783 9.55515C97.5887 9.35458 97.1601 9.25429 96.6926 9.25429C95.9467 9.25429 95.3233 9.48272 94.8224 9.93958C94.3214 10.3964 94.0487 11.0706 94.0042 11.962H99.2307Z" fill="#0C0C0C"/>
<path d="M104.893 9.65544C105.204 9.05372 105.65 8.58015 106.228 8.23472C106.807 7.87815 107.475 7.69986 108.232 7.69986V9.77244H107.664C106.83 9.77244 106.156 9.97858 105.644 10.3909C105.143 10.792 104.893 11.4606 104.893 12.3966V17.0599H102.989V7.85029H104.893V9.65544Z" fill="#0C0C0C"/>
<path d="M113.75 7.73329C114.941 7.73329 115.926 8.05086 116.705 8.68601C117.484 9.31001 117.969 10.1624 118.158 11.2433H116.137C116.026 10.6639 115.753 10.2126 115.319 9.88944C114.896 9.55515 114.362 9.38801 113.716 9.38801C112.981 9.38801 112.369 9.64986 111.879 10.1736C111.39 10.6862 111.145 11.4439 111.145 12.4467C111.145 13.4496 111.39 14.2129 111.879 14.7366C112.369 15.2603 112.981 15.5221 113.716 15.5221C114.362 15.5221 114.896 15.355 115.319 15.0207C115.753 14.6864 116.026 14.2296 116.137 13.6502H118.158C117.969 14.731 117.484 15.589 116.705 16.2241C115.926 16.8593 114.941 17.1769 113.75 17.1769C112.859 17.1769 112.069 16.9874 111.378 16.6086C110.699 16.2297 110.165 15.6837 109.775 14.9706C109.386 14.2574 109.191 13.4162 109.191 12.4467C109.191 11.4884 109.386 10.6527 109.775 9.93958C110.165 9.22644 110.699 8.68044 111.378 8.30158C112.069 7.92272 112.859 7.73329 113.75 7.73329Z" fill="#0C0C0C"/>
<path d="M128.547 12.0121C128.547 12.3241 128.524 12.5971 128.48 12.8311H121.4C121.433 13.7783 121.695 14.4803 122.185 14.9372C122.674 15.394 123.281 15.6224 124.005 15.6224C124.639 15.6224 125.174 15.4609 125.608 15.1377C126.053 14.8146 126.326 14.3856 126.426 13.8507H128.463C128.341 14.497 128.085 15.0709 127.695 15.5723C127.305 16.0737 126.799 16.4693 126.175 16.759C125.552 17.0376 124.856 17.1769 124.088 17.1769C123.198 17.1769 122.407 16.9874 121.717 16.6086C121.038 16.2297 120.504 15.6837 120.114 14.9706C119.724 14.2574 119.53 13.4162 119.53 12.4467C119.53 11.4884 119.724 10.6527 120.114 9.93958C120.504 9.22644 121.038 8.68044 121.717 8.30158C122.407 7.92272 123.198 7.73329 124.088 7.73329C124.99 7.73329 125.775 7.92272 126.443 8.30158C127.122 8.66929 127.639 9.18186 127.996 9.83929C128.363 10.4856 128.547 11.2099 128.547 12.0121ZM126.626 11.962C126.649 11.3603 126.543 10.8589 126.309 10.4577C126.086 10.0454 125.775 9.74458 125.374 9.55515C124.984 9.35458 124.556 9.25429 124.088 9.25429C123.342 9.25429 122.719 9.48272 122.218 9.93958C121.717 10.3964 121.444 11.0706 121.4 11.962H126.626Z" fill="#0C0C0C"/>
<path d="M137.298 10.9759C138.01 11.143 138.572 11.4884 138.984 12.0121C139.407 12.5359 139.619 13.1432 139.619 13.834C139.619 14.848 139.279 15.6392 138.6 16.2074C137.932 16.7757 136.969 17.0599 135.711 17.0599H130.218V5.24286H135.578C136.78 5.24286 137.71 5.50472 138.366 6.02844C139.023 6.55215 139.352 7.29872 139.352 8.26815C139.352 8.98129 139.162 9.57744 138.784 10.0566C138.405 10.5246 137.91 10.831 137.298 10.9759ZM133.073 10.0733H134.943C135.934 10.0733 136.429 9.64986 136.429 8.80301C136.429 7.95615 135.923 7.53272 134.91 7.53272H133.073V10.0733ZM135.11 14.7366C136.168 14.7366 136.697 14.302 136.697 13.4329C136.697 13.0094 136.557 12.6807 136.279 12.4467C136.001 12.2016 135.606 12.079 135.093 12.079H133.073V14.7366H135.11Z" fill="#0C0C0C"/>
<path d="M145.485 7.61629C146.409 7.61629 147.233 7.81129 147.956 8.20129C148.691 8.58015 149.265 9.13172 149.676 9.85601C150.099 10.5803 150.311 11.4272 150.311 12.3966C150.311 13.366 150.099 14.2129 149.676 14.9372C149.265 15.6614 148.691 16.2186 147.956 16.6086C147.233 16.9874 146.409 17.1769 145.485 17.1769C144.561 17.1769 143.732 16.9874 142.997 16.6086C142.262 16.2186 141.683 15.6614 141.26 14.9372C140.849 14.2129 140.643 13.366 140.643 12.3966C140.643 11.4272 140.849 10.5803 141.26 9.85601C141.683 9.13172 142.262 8.58015 142.997 8.20129C143.732 7.81129 144.561 7.61629 145.485 7.61629ZM145.485 10.09C144.94 10.09 144.478 10.2906 144.099 10.6917C143.732 11.0817 143.548 11.65 143.548 12.3966C143.548 13.1432 143.732 13.7114 144.099 14.1014C144.478 14.4914 144.94 14.6864 145.485 14.6864C146.031 14.6864 146.487 14.4914 146.854 14.1014C147.222 13.7114 147.405 13.1432 147.405 12.3966C147.405 11.65 147.222 11.0817 146.854 10.6917C146.487 10.2906 146.031 10.09 145.485 10.09Z" fill="#0C0C0C"/>
<path d="M156.15 7.61629C157.074 7.61629 157.898 7.81129 158.621 8.20129C159.356 8.58015 159.929 9.13172 160.341 9.85601C160.764 10.5803 160.976 11.4272 160.976 12.3966C160.976 13.366 160.764 14.2129 160.341 14.9372C159.929 15.6614 159.356 16.2186 158.621 16.6086C157.898 16.9874 157.074 17.1769 156.15 17.1769C155.226 17.1769 154.397 16.9874 153.662 16.6086C152.927 16.2186 152.348 15.6614 151.925 14.9372C151.513 14.2129 151.307 13.366 151.307 12.3966C151.307 11.4272 151.513 10.5803 151.925 9.85601C152.348 9.13172 152.927 8.58015 153.662 8.20129C154.397 7.81129 155.226 7.61629 156.15 7.61629ZM156.15 10.09C155.604 10.09 155.142 10.2906 154.764 10.6917C154.397 11.0817 154.213 11.65 154.213 12.3966C154.213 13.1432 154.397 13.7114 154.764 14.1014C155.142 14.4914 155.604 14.6864 156.15 14.6864C156.695 14.6864 157.152 14.4914 157.519 14.1014C157.886 13.7114 158.07 13.1432 158.07 12.3966C158.07 11.65 157.886 11.0817 157.519 10.6917C157.152 10.2906 156.695 10.09 156.15 10.09Z" fill="#0C0C0C"/>
<path d="M165.846 7.61629C167.026 7.61629 167.967 7.91158 168.668 8.50215C169.381 9.09272 169.826 9.87272 170.004 10.8421H167.332C167.254 10.4633 167.076 10.168 166.798 9.95629C166.531 9.73344 166.191 9.62201 165.779 9.62201C165.456 9.62201 165.212 9.69444 165.045 9.83929C164.878 9.97301 164.794 10.168 164.794 10.4243C164.794 10.714 164.944 10.9313 165.245 11.0761C165.557 11.221 166.041 11.3659 166.698 11.5107C167.41 11.6779 167.995 11.8506 168.451 12.0289C168.907 12.196 169.303 12.4746 169.637 12.8646C169.971 13.2546 170.137 13.7783 170.137 14.4357C170.137 14.9706 169.993 15.4442 169.703 15.8564C169.414 16.2687 168.996 16.5919 168.451 16.8259C167.906 17.0599 167.26 17.1769 166.514 17.1769C165.256 17.1769 164.249 16.8983 163.492 16.3412C162.735 15.784 162.273 14.9873 162.106 13.951H164.861C164.905 14.3521 165.072 14.6586 165.362 14.8703C165.662 15.082 166.046 15.1879 166.514 15.1879C166.837 15.1879 167.082 15.1154 167.249 14.9706C167.416 14.8146 167.499 14.614 167.499 14.3689C167.499 14.0457 167.343 13.8173 167.032 13.6836C166.731 13.5387 166.236 13.3883 165.545 13.2323C164.855 13.0874 164.288 12.9314 163.842 12.7643C163.397 12.5972 163.013 12.3297 162.69 11.962C162.367 11.5832 162.206 11.0706 162.206 10.4243C162.206 9.58858 162.523 8.91444 163.158 8.40186C163.792 7.87815 164.688 7.61629 165.846 7.61629Z" fill="#0C0C0C"/>
<path d="M176.995 14.6029V17.0599H175.71C174.619 17.0599 173.767 16.7924 173.155 16.2576C172.554 15.7116 172.253 14.8146 172.253 13.5666V10.1401H171.001V7.73329H172.253V5.44344H175.108V7.73329H176.979V10.1401H175.108V13.6167C175.108 13.9844 175.181 14.2407 175.325 14.3856C175.481 14.5304 175.737 14.6029 176.094 14.6029H176.995Z" fill="#0C0C0C"/>
<path d="M187.45 12.1459C187.45 12.3799 187.422 12.6362 187.367 12.9147H180.904C180.938 13.6167 181.116 14.1237 181.439 14.4357C181.762 14.7366 182.174 14.887 182.674 14.887C183.098 14.887 183.448 14.7811 183.726 14.5694C184.005 14.3577 184.188 14.0847 184.278 13.7504H187.3C187.177 14.4079 186.91 14.9984 186.498 15.5221C186.087 16.0347 185.563 16.4414 184.929 16.7423C184.294 17.032 183.587 17.1769 182.808 17.1769C181.895 17.1769 181.083 16.9874 180.37 16.6086C179.669 16.2186 179.118 15.6614 178.717 14.9372C178.316 14.2129 178.116 13.366 178.116 12.3966C178.116 11.416 178.311 10.5691 178.7 9.85601C179.101 9.13172 179.658 8.58015 180.37 8.20129C181.083 7.81129 181.895 7.61629 182.808 7.61629C183.732 7.61629 184.545 7.80572 185.246 8.18458C185.947 8.56344 186.487 9.09829 186.866 9.78915C187.255 10.4689 187.45 11.2544 187.45 12.1459ZM184.561 11.7113C184.573 11.0984 184.406 10.6416 184.06 10.3407C183.726 10.0287 183.309 9.87272 182.808 9.87272C182.285 9.87272 181.851 10.0287 181.506 10.3407C181.161 10.6527 180.966 11.1096 180.921 11.7113H184.561Z" fill="#0C0C0C"/>
<path d="M191.794 9.48829C192.15 8.92001 192.607 8.46872 193.163 8.13444C193.731 7.80015 194.343 7.63301 195 7.63301V10.6917H194.182C193.425 10.6917 192.835 10.8533 192.412 11.1764C192 11.4996 191.794 12.0456 191.794 12.8144V17.0599H188.939V7.73329H191.794V9.48829Z" fill="#0C0C0C"/>
<path d="M-2.57492e-05 15L13.698 7.34739L13.7011 1.90735e-06L-2.52066e-05 7.64889L-2.57492e-05 15Z" fill="#B5CBEF"/>
<path d="M29.115 11.5712L14.9857 19.7365L14.9857 3.40577L29.115 11.5712Z" fill="#1071FF"/>
<path d="M6.42238 20.0487L13.7011 24L13.7011 16.7119L6.42238 12.8571L6.42238 20.0487Z" fill="#B5CBEF"/>
</svg>
