<svg width="343" height="48" viewBox="0 0 343 48" fill="none" xmlns="http://www.w3.org/2000/svg">
<rect width="343" height="48" rx="8" fill="white"/>
<g clip-path="url(#clip0_14_2622)">
<path d="M31.5 26H30.71L30.43 25.73C31.41 24.59 32 23.11 32 21.5C32 17.91 29.09 15 25.5 15C21.91 15 19 17.91 19 21.5C19 25.09 21.91 28 25.5 28C27.11 28 28.59 27.41 29.73 26.43L30 26.71V27.5L35 32.49L36.49 31L31.5 26ZM25.5 26C23.01 26 21 23.99 21 21.5C21 19.01 23.01 17 25.5 17C27.99 17 30 19.01 30 21.5C30 23.99 27.99 26 25.5 26Z" fill="#1071FF"/>
</g>
<path d="M52.41 29.126C54.678 29.126 56.078 28.062 56.078 26.312C56.078 24.814 55.112 23.876 53.292 23.498L51.962 23.218C50.926 22.994 50.296 22.56 50.296 21.762C50.296 20.656 51.136 20.194 52.396 20.194C53.908 20.194 54.608 20.922 54.664 21.986H55.91C55.896 20.25 54.524 19.074 52.424 19.074C50.254 19.074 49.022 20.11 49.022 21.762C49.022 23.26 49.932 24.044 51.626 24.408L53.054 24.716C54.118 24.94 54.804 25.36 54.804 26.312C54.804 27.46 53.964 28.02 52.41 28.02C50.87 28.02 50.016 27.278 49.946 26.06H48.7C48.756 27.908 50.03 29.126 52.41 29.126ZM60.7937 29.126C62.3197 29.126 63.5797 28.244 63.7757 26.928H62.5997C62.4037 27.684 61.7317 28.076 60.7937 28.076C59.4637 28.076 58.7777 27.138 58.7777 25.78H63.8737V25.206C63.8737 23.218 62.7957 21.72 60.7797 21.72C58.5677 21.72 57.5457 23.358 57.5457 25.43C57.5457 27.53 58.6797 29.126 60.7937 29.126ZM58.7917 24.8C58.8337 23.68 59.4357 22.77 60.7797 22.77C62.0537 22.77 62.6557 23.666 62.6557 24.8H58.7917ZM67.7623 29.126C68.7703 29.126 69.5683 28.72 70.0023 27.992H70.0583L70.1423 29H71.1363V24.184C71.1363 22.826 70.1703 21.72 68.3363 21.72C66.7683 21.72 65.6203 22.63 65.6203 24.002H66.7543C66.7683 23.316 67.2863 22.728 68.3363 22.728C69.4983 22.728 69.9883 23.414 69.9883 24.212V24.674H68.2243C66.1243 24.674 65.2703 25.71 65.2703 26.914C65.2703 28.16 66.2083 29.126 67.7623 29.126ZM67.9723 28.146C66.9363 28.146 66.4603 27.614 66.4603 26.9C66.4603 26.06 67.0623 25.612 68.2243 25.612H69.9883V26.228C69.9883 27.264 69.1903 28.146 67.9723 28.146ZM73.5139 29H74.6899V25.528C74.6899 23.848 75.3059 22.896 76.6639 22.896H77.2239V21.762H76.5799C75.6979 21.762 74.9839 22.252 74.6899 23.05H74.6339L74.5359 21.846H73.5139V29ZM81.3835 29.126C83.2455 29.126 84.1975 28.104 84.3375 26.592H83.1615C83.0635 27.544 82.4335 28.09 81.3695 28.09C79.8995 28.09 79.3255 26.928 79.3255 25.43C79.3255 23.96 79.8995 22.77 81.3695 22.77C82.4055 22.77 83.0635 23.344 83.1335 24.296H84.3095C84.2115 22.854 83.2875 21.72 81.3695 21.72C79.2415 21.72 78.1355 23.204 78.1355 25.43C78.1355 27.684 79.2415 29.126 81.3835 29.126ZM86.2971 29H87.4731V25.08C87.4731 23.638 88.2291 22.77 89.3911 22.77C90.5251 22.77 91.0711 23.414 91.0711 24.534V29H92.2471V24.352C92.2471 22.714 91.2951 21.72 89.7131 21.72C88.6071 21.72 87.9071 22.238 87.5291 22.966H87.4731V18.64H86.2971V29ZM102.209 29.126C104.085 29.126 105.233 27.726 105.247 25.416C105.233 23.302 104.225 21.72 102.209 21.72C101.145 21.72 100.431 22.21 100.053 22.84H99.9965V18.64H98.8205V29H99.8425L99.9965 28.006H100.053C100.431 28.636 101.145 29.126 102.209 29.126ZM102.013 28.076C100.585 28.076 99.9685 26.844 99.9685 25.416C99.9685 24.002 100.585 22.77 102.013 22.77C103.497 22.77 104.057 23.988 104.057 25.416C104.057 26.858 103.497 28.076 102.013 28.076ZM106.085 21.846V21.986L108.955 28.902L108.969 28.944L107.751 32.066V32.206H108.941L112.903 21.986V21.846H111.671L109.571 27.46H109.515L107.345 21.846H106.085ZM118.645 32.206H119.821V28.006H119.877C120.255 28.636 120.969 29.126 122.033 29.126C124.049 29.126 125.057 27.544 125.071 25.43C125.057 23.12 123.909 21.72 122.033 21.72C120.969 21.72 120.255 22.21 119.877 22.84H119.821L119.667 21.846H118.645V32.206ZM121.837 28.076C120.409 28.076 119.793 26.844 119.793 25.43C119.793 24.002 120.409 22.77 121.837 22.77C123.321 22.77 123.881 23.988 123.881 25.43C123.881 26.858 123.321 28.076 121.837 28.076ZM127.026 29H128.202V25.528C128.202 23.848 128.818 22.896 130.176 22.896H130.736V21.762H130.092C129.21 21.762 128.496 22.252 128.202 23.05H128.146L128.048 21.846H127.026V29ZM134.881 29.126C137.121 29.126 138.115 27.474 138.115 25.43C138.115 23.372 137.093 21.72 134.881 21.72C132.669 21.72 131.647 23.372 131.647 25.43C131.647 27.488 132.641 29.126 134.881 29.126ZM134.881 28.076C133.439 28.076 132.837 26.97 132.837 25.43C132.837 23.904 133.425 22.77 134.881 22.77C136.337 22.77 136.925 23.89 136.925 25.43C136.925 26.97 136.337 28.076 134.881 28.076ZM142.547 29.126C143.611 29.126 144.325 28.636 144.703 28.006H144.759L144.913 29H145.935V18.64H144.759V22.84H144.703C144.325 22.21 143.611 21.72 142.547 21.72C140.531 21.72 139.523 23.302 139.509 25.416C139.523 27.726 140.671 29.126 142.547 29.126ZM142.743 28.076C141.259 28.076 140.699 26.858 140.699 25.416C140.699 23.988 141.259 22.77 142.743 22.77C144.171 22.77 144.787 24.002 144.787 25.416C144.787 26.844 144.171 28.076 142.743 28.076ZM150.679 29.112C151.785 29.112 152.513 28.594 152.891 27.866H152.947L153.045 29H154.067V21.846H152.891V25.78C152.891 27.222 152.191 28.062 151.001 28.062C149.867 28.062 149.349 27.418 149.349 26.298V21.846H148.173V26.48C148.173 28.118 149.097 29.112 150.679 29.112ZM159.136 29.126C160.998 29.126 161.95 28.104 162.09 26.592H160.914C160.816 27.544 160.186 28.09 159.122 28.09C157.652 28.09 157.078 26.928 157.078 25.43C157.078 23.96 157.652 22.77 159.122 22.77C160.158 22.77 160.816 23.344 160.886 24.296H162.062C161.964 22.854 161.04 21.72 159.122 21.72C156.994 21.72 155.888 23.204 155.888 25.43C155.888 27.684 156.994 29.126 159.136 29.126ZM166.429 29H167.493V27.964H166.653C166.009 27.964 165.715 27.67 165.715 26.984V22.84H167.465V21.846H165.715V19.928H164.567V21.846H163.349V22.84H164.539V27.082C164.539 28.272 165.015 29 166.429 29ZM176.252 29.126C178.492 29.126 179.486 27.474 179.486 25.43C179.486 23.372 178.464 21.72 176.252 21.72C174.04 21.72 173.018 23.372 173.018 25.43C173.018 27.488 174.012 29.126 176.252 29.126ZM176.252 28.076C174.81 28.076 174.208 26.97 174.208 25.43C174.208 23.904 174.796 22.77 176.252 22.77C177.708 22.77 178.296 23.89 178.296 25.43C178.296 26.97 177.708 28.076 176.252 28.076ZM181.44 29H182.616V25.528C182.616 23.848 183.232 22.896 184.59 22.896H185.15V21.762H184.506C183.624 21.762 182.91 22.252 182.616 23.05H182.56L182.462 21.846H181.44V29ZM194.242 29.126C196.51 29.126 197.91 28.062 197.91 26.312C197.91 24.814 196.944 23.876 195.124 23.498L193.794 23.218C192.758 22.994 192.128 22.56 192.128 21.762C192.128 20.656 192.968 20.194 194.228 20.194C195.74 20.194 196.44 20.922 196.496 21.986H197.742C197.728 20.25 196.356 19.074 194.256 19.074C192.086 19.074 190.854 20.11 190.854 21.762C190.854 23.26 191.764 24.044 193.458 24.408L194.886 24.716C195.95 24.94 196.636 25.36 196.636 26.312C196.636 27.46 195.796 28.02 194.242 28.02C192.702 28.02 191.848 27.278 191.778 26.06H190.532C190.588 27.908 191.862 29.126 194.242 29.126ZM202.836 23.834L207.232 19.34V19.2H205.776L201.296 23.764V19.2H200.078V29H201.296V23.904L205.902 29H207.372V28.86L202.836 23.834ZM212.494 29.126C214.832 29.126 216.246 27.796 216.246 25.542V19.2H215.014V25.514C215.014 27.026 214.202 28.006 212.494 28.006C210.814 28.006 209.988 27.026 209.988 25.514V19.2H208.77V25.542C208.77 27.796 210.198 29.126 212.494 29.126Z" fill="#737B7D"/>
<defs>
<clipPath id="clip0_14_2622">
<rect width="24" height="24" fill="white" transform="translate(16 12)"/>
</clipPath>
</defs>
</svg>
