<svg width="14" height="14" viewBox="0 0 14 14" fill="none" xmlns="http://www.w3.org/2000/svg">
<path d="M10.3674 7.66683C10.8674 7.66683 11.3074 7.3935 11.5341 6.98016L13.9207 2.6535C14.1674 2.2135 13.8474 1.66683 13.3407 1.66683H3.47406L2.84739 0.333496H0.667389V1.66683H2.00072L4.40072 6.72683L3.50072 8.3535C3.01406 9.24683 3.65406 10.3335 4.66739 10.3335H12.6674V9.00016H4.66739L5.40072 7.66683H10.3674ZM4.10739 3.00016H12.2074L10.3674 6.3335H5.68739L4.10739 3.00016ZM4.66739 11.0002C3.93406 11.0002 3.34072 11.6002 3.34072 12.3335C3.34072 13.0668 3.93406 13.6668 4.66739 13.6668C5.40072 13.6668 6.00072 13.0668 6.00072 12.3335C6.00072 11.6002 5.40072 11.0002 4.66739 11.0002ZM11.3341 11.0002C10.6007 11.0002 10.0074 11.6002 10.0074 12.3335C10.0074 13.0668 10.6007 13.6668 11.3341 13.6668C12.0674 13.6668 12.6674 13.0668 12.6674 12.3335C12.6674 11.6002 12.0674 11.0002 11.3341 11.0002Z" fill="#1071FF"/>
</svg>
