<svg width="25" height="24" viewBox="0 0 25 24" fill="none" xmlns="http://www.w3.org/2000/svg">
<g clip-path="url(#clip0_570_2137)">
<path d="M12.5 24C19.1353 24 24.5 18.6353 24.5 12C24.5 5.36471 19.1353 0 12.5 0C5.86471 0 0.5 5.36471 0.5 12C0.5 18.6353 5.86471 24 12.5 24Z" fill="#0C0C0C"/>
<path d="M14.8294 11.9999L10.8765 14.3293V9.74109L14.8294 11.9999ZM18.5 14.1176V9.88226C18.5 9.88226 18.5 7.83521 16.4529 7.83521H8.54706C8.54706 7.83521 6.5 7.8352 6.5 9.88226V14.1176C6.5 14.1176 6.5 16.1646 8.54706 16.1646H16.3824C16.4529 16.2352 18.5 16.2352 18.5 14.1176Z" fill="#F6F8FB"/>
</g>
<defs>
<clipPath id="clip0_570_2137">
<rect width="24" height="24" fill="white" transform="translate(0.5)"/>
</clipPath>
</defs>
</svg>
