<svg width="8" height="9" viewBox="0 0 8 9" fill="none" xmlns="http://www.w3.org/2000/svg">
    <path d="M4.00002 0.973145C2.16002 0.973145 0.666687 2.56472 0.666687 4.52578C0.666687 6.48683 2.16002 8.07841 4.00002 8.07841C5.84002 8.07841 7.33335 6.48683 7.33335 4.52578C7.33335 2.56472 5.84002 0.973145 4.00002 0.973145ZM4.00002 7.36788C2.53002 7.36788 1.33335 6.09249 1.33335 4.52578C1.33335 2.95907 2.53002 1.68367 4.00002 1.68367C5.47002 1.68367 6.66669 2.95907 6.66669 4.52578C6.66669 6.09249 5.47002 7.36788 4.00002 7.36788ZM5.53002 2.95551L3.33335 5.2967L2.47002 4.38012L2.00002 4.88104L3.33335 6.30209L6.00002 3.45999L5.53002 2.95551Z" fill="#1071FF"/>
    </svg>
    