<svg width="21" height="20" viewBox="0 0 21 20" fill="none" xmlns="http://www.w3.org/2000/svg">
<path d="M8.58 8.86C8.63 8.53 8.74 8.24 8.88 7.99C9.02 7.74 9.22 7.53 9.47 7.37C9.71 7.22 10.01 7.15 10.38 7.14C10.61 7.15 10.82 7.19 11.01 7.27C11.21 7.36 11.39 7.48 11.53 7.63C11.67 7.78 11.78 7.96 11.87 8.16C11.96 8.36 12 8.58 12.01 8.8H13.8C13.78 8.33 13.69 7.9 13.52 7.51C13.35 7.12 13.12 6.78 12.82 6.5C12.52 6.22 12.16 6 11.74 5.84C11.32 5.68 10.86 5.61 10.35 5.61C9.7 5.61 9.13 5.72 8.65 5.95C8.17 6.18 7.77 6.48 7.45 6.87C7.13 7.26 6.89 7.71 6.74 8.23C6.59 8.75 6.5 9.29 6.5 9.87V10.14C6.5 10.72 6.58 11.26 6.73 11.78C6.88 12.3 7.12 12.75 7.44 13.13C7.76 13.51 8.16 13.82 8.64 14.04C9.12 14.26 9.69 14.38 10.34 14.38C10.81 14.38 11.25 14.3 11.66 14.15C12.07 14 12.43 13.79 12.74 13.52C13.05 13.25 13.3 12.94 13.48 12.58C13.66 12.22 13.77 11.84 13.78 11.43H11.99C11.98 11.64 11.93 11.83 11.84 12.01C11.75 12.19 11.63 12.34 11.48 12.47C11.33 12.6 11.16 12.7 10.96 12.77C10.77 12.84 10.57 12.86 10.36 12.87C10 12.86 9.7 12.79 9.47 12.64C9.22 12.48 9.02 12.27 8.88 12.02C8.74 11.77 8.63 11.47 8.58 11.14C8.53 10.81 8.5 10.47 8.5 10.14V9.87C8.5 9.52 8.53 9.19 8.58 8.86ZM10.5 0C4.98 0 0.5 4.48 0.5 10C0.5 15.52 4.98 20 10.5 20C16.02 20 20.5 15.52 20.5 10C20.5 4.48 16.02 0 10.5 0ZM10.5 18C6.09 18 2.5 14.41 2.5 10C2.5 5.59 6.09 2 10.5 2C14.91 2 18.5 5.59 18.5 10C18.5 14.41 14.91 18 10.5 18Z" fill="#434447"/>
</svg>
