<svg width="25" height="24" viewBox="0 0 25 24" fill="none" xmlns="http://www.w3.org/2000/svg">
<g clip-path="url(#clip0_570_2130)">
<path d="M12.5 24C19.1353 24 24.5 18.6353 24.5 12C24.5 5.36471 19.1353 0 12.5 0C5.86471 0 0.5 5.36471 0.5 12C0.5 18.6353 5.86471 24 12.5 24Z" fill="#0C0C0C"/>
<path d="M9.6059 9.95294H10.8765V8.75294C10.8765 8.18823 10.8765 7.41176 11.3 6.91765C11.653 6.35294 12.2177 6 13.2059 6C14.7588 6 15.4647 6.21176 15.4647 6.21176L15.1824 8.04706C15.1824 8.04706 14.6882 7.90588 14.1941 7.90588C13.7 7.90588 13.2765 8.04706 13.2765 8.54118V9.95294H15.253L15.1118 11.7176H13.2059V17.9294H10.8765V11.7176H9.6059V9.95294Z" fill="#F6F8FB"/>
</g>
<defs>
<clipPath id="clip0_570_2130">
<rect width="24" height="24" fill="white" transform="translate(0.5)"/>
</clipPath>
</defs>
</svg>
